<svg xmlns="http://www.w3.org/2000/svg" width="400" height="270" viewBox="0 0 400 270"><path d="M79,65 C91,47 115,42 136,53 L153,60 H247 L264,53 C285,42 309,47 321,65 L344,106 C361,146 374,214 358,234 C344,251 320,227 292,190 L271,177 H129 L108,190 C80,227 56,251 42,234 C26,214 39,146 56,106Z" fill="#121B30" stroke="#D1DAED" stroke-width="1.8" opacity="1" stroke-linecap="round" stroke-linejoin="round"/>
<path d="M82,67 C94,50 115,45 136,56 L153,63 H246 M326,79 C350,127 369,212 354,230 M39,213 C36,187 47,134 59,109" fill="none" stroke="#B4CCFF" stroke-width="0.65" opacity="0.4" stroke-linecap="round" stroke-linejoin="round"/>
<path d="M83,67 Q101,45 134,55 L145,64 L137,76 L86,82Z" fill="#1B263B" stroke="#A8B8D2" stroke-width="1.1" opacity="1" stroke-linecap="round" stroke-linejoin="round"/>
<path d="M317,67 Q299,45 266,55 L255,64 L263,76 L314,82Z" fill="#1B263B" stroke="#A8B8D2" stroke-width="1.1" opacity="1" stroke-linecap="round" stroke-linejoin="round"/>
<path d="M86,40 Q87,25 96,25 H119 Q129,25 130,40 L126,47 H90Z" fill="#18243B" stroke="#B4CCFF" stroke-width="1.2" opacity="1" stroke-linecap="round" stroke-linejoin="round"/>
<path d="M270,40 Q271,25 281,25 H304 Q313,25 314,40 L310,47 H274Z" fill="#18243B" stroke="#B4CCFF" stroke-width="1.2" opacity="1" stroke-linecap="round" stroke-linejoin="round"/>
<path d="M 75,117 a 30,30 0 1,0 60,0 a 30,30 0 1,0 -60,0" fill="#17233A" stroke="#BACAE5" stroke-width="1.4" opacity="1" stroke-linecap="round" stroke-linejoin="round"/>
<path d="M 83,117 a 22,22 0 1,0 44,0 a 22,22 0 1,0 -44,0" fill="none" stroke="#90A4C3" stroke-width="1.05" opacity="1" stroke-linecap="round" stroke-linejoin="round"/>
<path d="M 88,117 a 17,17 0 1,0 34,0 a 17,17 0 1,0 -34,0" fill="none" stroke="#798BA7" stroke-width="0.6" opacity="1" stroke-linecap="round" stroke-linejoin="round"/>
<path d="M 217,178 a 29,29 0 1,0 58,0 a 29,29 0 1,0 -58,0" fill="#17233A" stroke="#BACAE5" stroke-width="1.4" opacity="1" stroke-linecap="round" stroke-linejoin="round"/>
<path d="M 225,178 a 21,21 0 1,0 42,0 a 21,21 0 1,0 -42,0" fill="none" stroke="#90A4C3" stroke-width="1.05" opacity="1" stroke-linecap="round" stroke-linejoin="round"/>
<path d="M 230,178 a 16,16 0 1,0 32,0 a 16,16 0 1,0 -32,0" fill="none" stroke="#798BA7" stroke-width="0.6" opacity="1" stroke-linecap="round" stroke-linejoin="round"/>
<path d="M140,155 H157 V169 H171 V186 H157 V200 H140 V186 H126 V169 H140Z" fill="#1A2840" stroke="#BDCAE1" stroke-width="1.4" opacity="1" stroke-linecap="round" stroke-linejoin="round"/>
<path d="M144,160 H153 M130,173 V182 M143,195 H153 M166,174 V182" fill="none" stroke="#879CBF" stroke-width="0.7" opacity="1" stroke-linecap="round" stroke-linejoin="round"/>
<path d="M 188,89 a 12,12 0 1,0 24,0 a 12,12 0 1,0 -24,0" fill="none" stroke="#A8B8D2" stroke-width="1.2" opacity="1" stroke-linecap="round" stroke-linejoin="round"/>
<path d="M200,83 Q200.7,88.3 206,89 Q200.7,89.7 200,95 Q199.3,89.7 194,89 Q199.3,88.3 200,83Z" fill="#B4CCFF" opacity="0.9" stroke-linecap="round" stroke-linejoin="round"/>
<path d="M 172,125 a 8,8 0 1,0 16,0 a 8,8 0 1,0 -16,0" fill="none" stroke="#A8B8D2" stroke-width="1" opacity="1" stroke-linecap="round" stroke-linejoin="round"/>
<path d="M 212,125 a 8,8 0 1,0 16,0 a 8,8 0 1,0 -16,0" fill="none" stroke="#B4CCFF" stroke-width="1.1" opacity="1" stroke-linecap="round" stroke-linejoin="round"/>
<path d="M176,122 H181 V126 H176Z M179,124 H184 V128 H179Z" fill="none" stroke="#ADBBD5" stroke-width="0.8" opacity="1" stroke-linecap="round" stroke-linejoin="round"/>
<path d="M217,122 H223 M217,125 H223 M217,128 H223" fill="none" stroke="#B4CCFF" stroke-width="0.8" opacity="1" stroke-linecap="round" stroke-linejoin="round"/>
<path d="M 284,95 a 13,13 0 1,0 26,0 a 13,13 0 1,0 -26,0" fill="#1D293E" stroke="#D5CA9B" stroke-width="1.15" opacity="1" stroke-linecap="round" stroke-linejoin="round"/>
<path d="M 260,119 a 13,13 0 1,0 26,0 a 13,13 0 1,0 -26,0" fill="#1D293E" stroke="#94BDE1" stroke-width="1.15" opacity="1" stroke-linecap="round" stroke-linejoin="round"/>
<path d="M 308,119 a 13,13 0 1,0 26,0 a 13,13 0 1,0 -26,0" fill="#1D293E" stroke="#D6A4B1" stroke-width="1.15" opacity="1" stroke-linecap="round" stroke-linejoin="round"/>
<path d="M 284,143 a 13,13 0 1,0 26,0 a 13,13 0 1,0 -26,0" fill="#1D293E" stroke="#A9CDB9" stroke-width="1.15" opacity="1" stroke-linecap="round" stroke-linejoin="round"/>
<path d="M54,153 l8,-8" fill="none" stroke="#7186AA" stroke-width="0.65" opacity="0.6" stroke-linecap="round" stroke-linejoin="round"/>
<path d="M346,153 l-8,-8" fill="none" stroke="#7186AA" stroke-width="0.65" opacity="0.6" stroke-linecap="round" stroke-linejoin="round"/>
<path d="M53.65,161 l8.8,-8" fill="none" stroke="#7186AA" stroke-width="0.65" opacity="0.6" stroke-linecap="round" stroke-linejoin="round"/>
<path d="M346.35,161 l-8.8,-8" fill="none" stroke="#7186AA" stroke-width="0.65" opacity="0.6" stroke-linecap="round" stroke-linejoin="round"/>
<path d="M53.3,169 l9.6,-8" fill="none" stroke="#7186AA" stroke-width="0.65" opacity="0.6" stroke-linecap="round" stroke-linejoin="round"/>
<path d="M346.7,169 l-9.6,-8" fill="none" stroke="#7186AA" stroke-width="0.65" opacity="0.6" stroke-linecap="round" stroke-linejoin="round"/>
<path d="M52.95,177 l10.4,-8" fill="none" stroke="#7186AA" stroke-width="0.65" opacity="0.6" stroke-linecap="round" stroke-linejoin="round"/>
<path d="M347.05,177 l-10.4,-8" fill="none" stroke="#7186AA" stroke-width="0.65" opacity="0.6" stroke-linecap="round" stroke-linejoin="round"/>
<path d="M52.6,185 l11.2,-8" fill="none" stroke="#7186AA" stroke-width="0.65" opacity="0.6" stroke-linecap="round" stroke-linejoin="round"/>
<path d="M347.4,185 l-11.2,-8" fill="none" stroke="#7186AA" stroke-width="0.65" opacity="0.6" stroke-linecap="round" stroke-linejoin="round"/>
<path d="M52.25,193 l12,-8" fill="none" stroke="#7186AA" stroke-width="0.65" opacity="0.6" stroke-linecap="round" stroke-linejoin="round"/>
<path d="M347.75,193 l-12,-8" fill="none" stroke="#7186AA" stroke-width="0.65" opacity="0.6" stroke-linecap="round" stroke-linejoin="round"/>
<path d="M51.9,201 l12.8,-8" fill="none" stroke="#7186AA" stroke-width="0.65" opacity="0.6" stroke-linecap="round" stroke-linejoin="round"/>
<path d="M348.1,201 l-12.8,-8" fill="none" stroke="#7186AA" stroke-width="0.65" opacity="0.6" stroke-linecap="round" stroke-linejoin="round"/>
<path d="M69,201 Q66,223 58,225 M331,201 Q334,223 342,225" fill="none" stroke="#7D94B8" stroke-width="0.8" opacity="0.7" stroke-linecap="round" stroke-linejoin="round"/>
<path d="M101,31V38.2H105.32" fill="none" stroke="#B4CCFF" stroke-width="1.05" opacity="1" stroke-linecap="round" stroke-linejoin="round"/>
<path d="M108.2,31H113.96 M111.08,31V38.2" fill="none" stroke="#B4CCFF" stroke-width="1.05" opacity="1" stroke-linecap="round" stroke-linejoin="round"/>
<path d="M285,38.2V31H287.88Q290.76,31 290.76,33.16Q290.76,35.32 285,35.32 M287.88,35.32L290.76,38.2" fill="none" stroke="#B4CCFF" stroke-width="1.05" opacity="1" stroke-linecap="round" stroke-linejoin="round"/>
<path d="M292.2,31H297.96 M295.08,31V38.2" fill="none" stroke="#B4CCFF" stroke-width="1.05" opacity="1" stroke-linecap="round" stroke-linejoin="round"/>
<path d="M104,60V67.5H108.5" fill="none" stroke="#EDF2FF" stroke-width="1.05" opacity="1" stroke-linecap="round" stroke-linejoin="round"/>
<path d="M111.5,60V67.5H114.5Q118.25,67.5 117.5,65.25Q117.5,63.75 111.5,63.75 M111.5,60H114.5Q117.5,60 117.5,62.25Q117.5,63.75 111.5,63.75" fill="none" stroke="#EDF2FF" stroke-width="1.05" opacity="1" stroke-linecap="round" stroke-linejoin="round"/>
<path d="M283,67.5V60H286Q289,60 289,62.25Q289,64.5 283,64.5 M286,64.5L289,67.5" fill="none" stroke="#EDF2FF" stroke-width="1.05" opacity="1" stroke-linecap="round" stroke-linejoin="round"/>
<path d="M290.5,60V67.5H293.5Q297.25,67.5 296.5,65.25Q296.5,63.75 290.5,63.75 M290.5,60H293.5Q296.5,60 296.5,62.25Q296.5,63.75 290.5,63.75" fill="none" stroke="#EDF2FF" stroke-width="1.05" opacity="1" stroke-linecap="round" stroke-linejoin="round"/>
<path d="M293,90L297,95L301,90 M297,95V100" fill="none" stroke="#E5D4AA" stroke-width="1.05" opacity="1" stroke-linecap="round" stroke-linejoin="round"/>
<path d="M269,114L277,124 M277,114L269,124" fill="none" stroke="#AED3F7" stroke-width="1.05" opacity="1" stroke-linecap="round" stroke-linejoin="round"/>
<path d="M317,114V124H321Q326,124 325,121Q325,119 317,119 M317,114H321Q325,114 325,117Q325,119 317,119" fill="none" stroke="#EFBECC" stroke-width="1.05" opacity="1" stroke-linecap="round" stroke-linejoin="round"/>
<path d="M293,148L297,138L301,148 M295,144H299" fill="none" stroke="#C3E6D1" stroke-width="1.05" opacity="1" stroke-linecap="round" stroke-linejoin="round"/></svg>