<svg xmlns="http://www.w3.org/2000/svg" width="400" height="280" viewBox="0 0 400 280"><path d="M20,0H380Q400,0 400,20V260Q400,280 380,280H20Q0,280 0,260V20Q0,0 20,0Z" fill="#0C1935" stroke="#4A6394" stroke-width="1" opacity="1" stroke-linecap="round" stroke-linejoin="round"/>
<path d="M 29.15,18 a 0.85,0.85 0 1,0 1.7,0 a 0.85,0.85 0 1,0 -1.7,0" fill="#87D9FF" opacity="0.22" stroke-linecap="round" stroke-linejoin="round"/>
<path d="M 102.5,11 a 0.5,0.5 0 1,0 1,0 a 0.5,0.5 0 1,0 -1,0" fill="#87D9FF" opacity="0.22" stroke-linecap="round" stroke-linejoin="round"/>
<path d="M 366.15,41 a 0.85,0.85 0 1,0 1.7,0 a 0.85,0.85 0 1,0 -1.7,0" fill="#87D9FF" opacity="0.22" stroke-linecap="round" stroke-linejoin="round"/>
<path d="M 385.5,102 a 0.5,0.5 0 1,0 1,0 a 0.5,0.5 0 1,0 -1,0" fill="#87D9FF" opacity="0.22" stroke-linecap="round" stroke-linejoin="round"/>
<path d="M 14.15,190 a 0.85,0.85 0 1,0 1.7,0 a 0.85,0.85 0 1,0 -1.7,0" fill="#87D9FF" opacity="0.22" stroke-linecap="round" stroke-linejoin="round"/>
<path d="M 349.5,263 a 0.5,0.5 0 1,0 1,0 a 0.5,0.5 0 1,0 -1,0" fill="#87D9FF" opacity="0.22" stroke-linecap="round" stroke-linejoin="round"/>
<path d="M 240.15,270 a 0.85,0.85 0 1,0 1.7,0 a 0.85,0.85 0 1,0 -1.7,0" fill="#87D9FF" opacity="0.22" stroke-linecap="round" stroke-linejoin="round"/></svg>